<svg width="20" height="20" viewBox="0 0 20 20" fill="none" xmlns="http://www.w3.org/2000/svg">
<mask id="mask0_311_4058" style="mask-type:luminance" maskUnits="userSpaceOnUse" x="0" y="4" width="20" height="16">
<path d="M0 4.07837H19.2707V19.9453H0V4.07837Z" fill="white"/>
</mask>
<g mask="url(#mask0_311_4058)">
<path d="M19.2534 10.7773C19.0606 7.68517 17.488 5.37173 15.1219 4.07837C15.1353 4.15372 15.0683 4.24791 14.9919 4.21455C13.4443 3.53754 10.8188 5.72858 8.98412 4.58119C8.9979 4.99297 8.91748 7.00169 6.08786 7.1182C6.02105 7.12094 5.98429 7.05273 6.02653 7.00443C6.40495 6.57281 6.78703 5.48003 6.23765 4.89746C5.06113 5.95173 4.3779 6.34849 2.12205 5.82493C0.677732 7.33513 -0.140691 9.4021 0.0199727 11.977C0.347774 17.2332 5.27118 20.2378 10.2291 19.9284C15.1867 19.6193 19.5813 16.0336 19.2534 10.7773Z" fill="#FA320A"/>
</g>
<path d="M10.2179 2.81535C11.2367 2.57253 14.167 2.7917 15.1058 4.0371C15.1621 4.11178 15.0828 4.25311 14.9919 4.21344C13.4443 3.53643 10.8188 5.72747 8.98414 4.58008C8.99791 4.99187 8.9175 7.00058 6.08787 7.1171C6.02107 7.11983 5.9843 7.05162 6.02654 7.00332C6.40497 6.5717 6.78696 5.47892 6.23766 4.89635C4.95609 6.04481 4.26132 6.41386 1.47974 5.66199C1.3887 5.63743 1.41974 5.49112 1.51658 5.45419C2.04231 5.25328 3.23335 4.37328 4.36015 3.98539C4.57468 3.91162 4.78854 3.85436 4.99725 3.82108C3.75659 3.71021 3.19733 3.53768 2.4082 3.65668C2.32173 3.66971 2.26297 3.56905 2.31658 3.5C3.37982 2.13046 5.33849 1.71685 6.54696 2.4444C5.80206 1.52141 5.21858 0.785311 5.21858 0.785311L6.60115 0C6.60115 0 7.17235 1.27618 7.58795 2.20498C8.61642 0.685394 10.5299 0.545145 11.3384 1.62332C11.3864 1.68739 11.3363 1.77851 11.2562 1.7766C10.5982 1.76058 10.2358 2.35909 10.2084 2.81427L10.2179 2.81535Z" fill="#00912D"/>
</svg>
